<svg width="13" height="12" viewBox="0 0 13 12" fill="none" xmlns="http://www.w3.org/2000/svg">
<path fill-rule="evenodd" clip-rule="evenodd" d="M10.1111 0C10.4942 0 10.8616 0.131607 11.1325 0.36587C11.4034 0.600133 11.5556 0.917861 11.5556 1.24916V1.87374H12.2778C12.4693 1.87374 12.653 1.93954 12.7885 2.05667C12.9239 2.1738 13 2.33267 13 2.49832C13 2.66397 12.9239 2.82283 12.7885 2.93996C12.653 3.05709 12.4693 3.1229 12.2778 3.1229V9.99327C12.4693 9.99327 12.653 10.0591 12.7885 10.1762C12.9239 10.2933 13 10.4522 13 10.6178C13 10.7835 12.9239 10.9424 12.7885 11.0595C12.653 11.1766 12.4693 11.2424 12.2778 11.2424H7.58333V8.43182C7.58333 8.18335 7.4692 7.94505 7.26603 7.76935C7.06287 7.59366 6.78732 7.49495 6.5 7.49495C6.21268 7.49495 5.93713 7.59366 5.73397 7.76935C5.5308 7.94505 5.41667 8.18335 5.41667 8.43182V11.2424H0.722222C0.530677 11.2424 0.346977 11.1766 0.211534 11.0595C0.076091 10.9424 0 10.7835 0 10.6178C0 10.4522 0.076091 10.2933 0.211534 10.1762C0.346977 10.0591 0.530677 9.99327 0.722222 9.99327V3.1229C0.530677 3.1229 0.346977 3.05709 0.211534 2.93996C0.076091 2.82283 0 2.66397 0 2.49832C0 2.33267 0.076091 2.1738 0.211534 2.05667C0.346977 1.93954 0.530677 1.87374 0.722222 1.87374H1.44444V1.24916C1.44444 0.917861 1.59663 0.600133 1.86751 0.36587C2.1384 0.131607 2.5058 0 2.88889 0H10.1111ZM3.61111 6.24579C3.41957 6.24579 3.23587 6.3116 3.10042 6.42873C2.96498 6.54586 2.88889 6.70472 2.88889 6.87037V7.49495C2.88889 7.6606 2.96498 7.81947 3.10042 7.9366C3.23587 8.05373 3.41957 8.11953 3.61111 8.11953C3.80266 8.11953 3.98636 8.05373 4.1218 7.9366C4.25724 7.81947 4.33333 7.6606 4.33333 7.49495V6.87037C4.33333 6.70472 4.25724 6.54586 4.1218 6.42873C3.98636 6.3116 3.80266 6.24579 3.61111 6.24579ZM9.38889 6.24579C9.21199 6.24581 9.04126 6.30198 8.90906 6.40363C8.77687 6.50529 8.69242 6.64537 8.67172 6.7973L8.66667 6.87037V7.49495C8.66687 7.65414 8.73736 7.80726 8.86372 7.92302C8.99009 8.03878 9.1628 8.10844 9.34656 8.11777C9.53033 8.1271 9.71127 8.07539 9.85243 7.97322C9.9936 7.87104 10.0843 7.72611 10.1061 7.56803L10.1111 7.49495V6.87037C10.1111 6.70472 10.035 6.54586 9.89958 6.42873C9.76413 6.3116 9.58043 6.24579 9.38889 6.24579ZM3.61111 3.74748C3.43421 3.7475 3.26348 3.80366 3.13129 3.90532C2.99909 4.00697 2.91464 4.14705 2.89394 4.29898L2.88889 4.37206V4.99663C2.88909 5.15583 2.95958 5.30894 3.08595 5.4247C3.21231 5.54046 3.38502 5.61012 3.56879 5.61945C3.75255 5.62878 3.9335 5.57707 4.07466 5.4749C4.21582 5.37272 4.30654 5.22779 4.32828 5.06971L4.33333 4.99663V4.37206C4.33333 4.20641 4.25724 4.04754 4.1218 3.93041C3.98636 3.81328 3.80266 3.74748 3.61111 3.74748ZM6.5 3.74748C6.3231 3.7475 6.15237 3.80366 6.02018 3.90532C5.88798 4.00697 5.80353 4.14705 5.78283 4.29898L5.77778 4.37206V4.99663C5.77798 5.15583 5.84847 5.30894 5.97483 5.4247C6.1012 5.54046 6.27391 5.61012 6.45767 5.61945C6.64144 5.62878 6.82238 5.57707 6.96355 5.4749C7.10471 5.37272 7.19543 5.22779 7.21717 5.06971L7.22222 4.99663V4.37206C7.22222 4.20641 7.14613 4.04754 7.01069 3.93041C6.87525 3.81328 6.69155 3.74748 6.5 3.74748ZM9.38889 3.74748C9.19734 3.74748 9.01364 3.81328 8.8782 3.93041C8.74276 4.04754 8.66667 4.20641 8.66667 4.37206V4.99663C8.66667 5.16228 8.74276 5.32115 8.8782 5.43828C9.01364 5.55541 9.19734 5.62121 9.38889 5.62121C9.58043 5.62121 9.76413 5.55541 9.89958 5.43828C10.035 5.32115 10.1111 5.16228 10.1111 4.99663V4.37206C10.1111 4.20641 10.035 4.04754 9.89958 3.93041C9.76413 3.81328 9.58043 3.74748 9.38889 3.74748ZM10.1111 1.24916H2.88889V1.87374H10.1111V1.24916Z" fill="black"/>
</svg>
