<?xml version="1.0" standalone="no"?>
<!DOCTYPE svg PUBLIC "-//W3C//DTD SVG 20010904//EN"
 "http://www.w3.org/TR/2001/REC-SVG-20010904/DTD/svg10.dtd">
<svg version="1.0" xmlns="http://www.w3.org/2000/svg"
 width="1024.000000pt" height="1024.000000pt" viewBox="0 0 1024.000000 1024.000000"
 preserveAspectRatio="xMidYMid meet">

<g transform="translate(0.000000,1024.000000) scale(0.100000,-0.100000)"
fill="#000000" stroke="none">
<path d="M0 5120 l0 -5120 5120 0 5120 0 0 5120 0 5120 -5120 0 -5120 0 0
-5120z m5490 3945 c482 -67 865 -215 1247 -481 598 -417 1013 -1088 1137
-1834 59 -359 43 -780 -46 -1140 -133 -547 -440 -1055 -843 -1399 -129 -111
-133 -113 -164 -97 -14 7 -55 23 -91 35 -36 12 -71 25 -78 30 -9 5 18 34 95
98 412 344 714 800 858 1294 83 285 123 651 99 888 l-7 61 -57 0 c-31 0 -98
-3 -148 -6 l-91 -7 -6 -66 c-59 -580 -331 -1078 -799 -1460 -127 -104 -388
-261 -434 -261 -11 0 -29 22 -50 64 -17 34 -32 66 -32 69 0 3 41 26 90 51 189
96 415 267 553 420 323 354 490 752 514 1217 l6 129 218 0 218 0 -5 33 c-41
224 -97 421 -170 594 -278 665 -826 1186 -1499 1426 -860 307 -1801 149 -2515
-421 -482 -385 -834 -1003 -923 -1620 -2 -11 42 -13 221 -12 l222 1 0 -100 c0
-531 244 -1037 675 -1399 50 -41 90 -78 90 -81 0 -3 -20 -34 -44 -68 l-44 -62
-61 47 c-103 79 -284 262 -365 369 -232 308 -366 649 -401 1017 -5 60 -11 110
-12 111 -2 1 -71 5 -154 9 l-151 7 -6 -113 c-12 -215 21 -533 77 -748 97 -371
272 -714 511 -1006 85 -103 280 -301 347 -351 31 -23 37 -34 38 -66 0 -75 83
-198 160 -237 68 -35 167 -51 296 -49 66 1 126 -1 132 -5 15 -9 15 -53 0 -62
-6 -4 -84 -11 -172 -16 l-160 -9 -58 31 c-201 105 -473 325 -656 530 -169 189
-343 444 -426 623 -116 251 -125 274 -180 457 -94 318 -133 674 -107 990 33
398 131 746 305 1085 145 283 301 498 515 712 453 451 1044 727 1701 792 133
14 492 6 630 -14z m167 -556 c87 -42 155 -151 169 -272 7 -62 -14 -158 -51
-229 -31 -60 -31 -62 3 -44 57 30 103 96 122 175 13 53 9 176 -6 215 -6 17 -5
17 17 6 43 -23 136 -127 163 -182 15 -30 34 -90 43 -134 20 -97 7 -216 -31
-300 -80 -174 -386 -369 -706 -449 -336 -84 -634 -66 -948 57 -57 22 -106 37
-109 34 -3 -3 -1 -18 5 -33 22 -54 41 -149 48 -228 8 -96 -13 -228 -51 -330
-22 -59 -136 -290 -150 -303 -2 -2 -23 12 -47 31 -112 92 -253 102 -360 26
-35 -26 -36 -25 -73 71 -70 184 -90 285 -89 460 1 202 35 329 125 461 21 32
39 60 39 62 0 8 -62 27 -88 27 -25 0 -25 0 -6 21 23 25 69 50 108 58 29 6 29
7 30 86 1 68 5 85 26 115 21 30 25 32 28 15 8 -48 33 -125 41 -125 5 0 16 19
26 43 60 150 242 330 430 424 237 119 492 155 815 113 194 -25 281 -23 332 7
42 24 78 78 78 114 0 35 10 36 67 8z m402 -1024 c47 -75 65 -184 57 -360 -3
-82 -9 -152 -14 -157 -4 -4 -15 52 -25 125 -11 73 -32 184 -49 247 -42 163
-42 159 -28 175 19 23 28 19 59 -30z m-131 -112 c38 -89 78 -289 102 -508 6
-55 15 -134 20 -175 5 -41 14 -160 21 -263 15 -218 6 -315 -40 -432 -121 -312
-475 -508 -891 -493 l-95 3 -3 -31 c-4 -42 14 -53 92 -61 62 -5 66 -7 66 -31
0 -62 -69 -248 -99 -266 -5 -4 -24 14 -42 39 -18 25 -68 73 -112 106 -119 93
-253 225 -286 283 -20 35 -50 65 -93 96 -91 64 -230 201 -285 281 -25 38 -53
69 -62 69 -8 0 -35 -10 -60 -22 -34 -16 -65 -22 -116 -23 -121 0 -212 61 -276
185 -29 59 -38 188 -16 240 31 72 109 130 175 130 64 0 104 -21 186 -99 77
-73 97 -81 133 -56 16 11 22 28 25 77 3 54 13 79 63 173 33 60 68 130 79 155
51 122 76 303 58 413 -9 57 -9 59 12 54 11 -3 64 -16 117 -30 389 -103 897
-22 1239 196 30 20 58 36 61 36 4 1 16 -20 27 -46z m261 -653 c22 -11 49 -36
62 -56 30 -49 38 -160 15 -235 -15 -53 -67 -139 -84 -139 -4 0 -14 78 -21 173
-7 94 -15 196 -18 225 -3 28 -3 52 1 52 4 0 24 -9 45 -20z m-1598 -1217 c65
-87 153 -176 267 -270 56 -46 102 -86 102 -88 0 -2 -21 -15 -47 -31 -27 -15
-80 -48 -119 -75 l-72 -47 -45 46 c-98 101 -227 311 -227 369 0 38 61 153 80
153 10 0 37 -26 61 -57z m756 -110 c7 -9 23 -42 34 -72 25 -65 39 -244 21
-255 -6 -4 -28 2 -49 12 -21 11 -62 27 -91 37 -43 14 -52 20 -46 34 24 55 46
131 56 197 12 74 12 75 37 69 14 -3 32 -13 38 -22z m-950 -85 c25 -87 265
-410 309 -416 12 -2 41 13 69 34 61 46 225 144 242 144 29 0 37 -63 34 -282
l-1 -77 -47 -6 c-59 -7 -188 -37 -308 -70 -82 -23 -101 -25 -212 -19 l-122 6
6 128 c5 99 3 129 -7 135 -24 15 -45 -30 -69 -141 -26 -119 -35 -144 -55 -144
-8 0 -49 17 -92 39 -96 47 -153 67 -219 75 -63 9 -160 -6 -216 -33 -23 -12
-44 -19 -46 -17 -6 6 99 213 148 293 132 215 294 349 471 388 91 20 99 18 115
-37z m1147 -2 c103 -31 235 -142 318 -267 37 -56 114 -189 187 -322 52 -95 50
-109 -21 -170 -97 -81 -238 -164 -258 -152 -6 4 -10 34 -10 68 0 161 -38 339
-81 385 -11 12 -22 22 -25 22 -3 0 -3 -92 0 -205 2 -112 1 -207 -3 -209 -4 -3
-47 7 -95 23 -71 22 -91 32 -107 57 -45 71 -172 145 -282 165 l-70 13 5 140
c6 177 19 212 76 201 20 -3 73 -22 117 -42 140 -61 132 -59 154 -39 30 27 44
115 39 238 -2 60 -1 108 2 108 4 0 28 -6 54 -14z m-1605 -681 c30 -8 58 -18
63 -23 4 -4 -16 -16 -48 -26 -213 -67 -190 -81 108 -67 128 6 309 11 402 12
164 1 172 2 240 31 238 100 403 111 553 38 76 -37 125 -94 147 -169 27 -91 18
-162 -26 -227 -46 -67 -78 -49 -78 43 0 85 -17 159 -45 191 -31 36 -40 24 -21
-31 8 -25 18 -86 22 -135 7 -88 6 -91 -19 -116 -31 -31 -81 -35 -96 -8 -5 9
-12 44 -16 77 -10 92 -43 185 -64 185 -3 0 -12 -4 -20 -9 -11 -7 -9 -22 12
-87 48 -145 47 -183 -3 -209 -38 -20 -67 -19 -78 3 -5 9 -12 46 -15 82 -8 83
-29 144 -52 148 -34 7 -38 -14 -15 -79 32 -92 37 -155 15 -179 -23 -26 -71
-35 -92 -18 -9 7 -27 37 -39 66 -17 37 -29 52 -43 52 -11 0 -23 9 -26 20 -5
17 -15 20 -65 20 -52 0 -63 4 -101 35 -45 39 -72 42 -77 10 -7 -35 -35 -57
-137 -106 -152 -73 -243 -94 -400 -94 -121 1 -134 3 -187 28 -101 49 -148 132
-148 258 0 93 30 170 89 229 69 68 148 85 260 55z m2416 -354 c149 -138 174
-152 403 -215 52 -15 118 -38 147 -52 126 -59 288 -306 193 -292 -15 2 -51 39
-102 102 -82 101 -150 156 -195 156 -22 0 -17 -8 47 -66 67 -61 145 -154 172
-204 19 -36 -7 -54 -63 -46 -37 6 -59 19 -119 73 -82 73 -171 144 -206 162
-43 23 -72 -10 -35 -40 33 -28 93 -111 93 -130 0 -15 -7 -19 -37 -19 -98 1
-326 155 -453 306 -83 99 -247 263 -297 297 -18 12 -33 25 -33 28 0 4 30 25
68 48 37 22 91 60 121 83 l54 43 76 -76 c42 -41 117 -113 166 -158z m-3720 95
c203 -69 310 -196 322 -382 9 -137 -41 -245 -190 -412 -83 -92 -101 -130 -94
-194 l6 -48 -63 0 c-89 0 -283 51 -384 101 -150 74 -266 208 -314 363 -30 100
-23 225 20 319 59 129 182 230 333 272 87 24 264 15 364 -19z m3030 -15 c44
-17 115 -54 157 -82 125 -83 328 -310 477 -532 52 -79 63 -102 54 -115 -21
-34 -353 -142 -573 -186 -298 -60 -561 -86 -879 -86 -130 0 -241 4 -247 8 -6
4 -16 17 -22 28 -7 14 -26 24 -49 29 -62 11 -121 45 -143 81 l-21 33 31 128
c59 244 121 458 136 469 10 8 27 9 56 2 55 -12 55 -12 63 -58 7 -41 52 -100
77 -100 9 0 14 -17 15 -56 4 -124 75 -150 258 -93 l67 21 27 -26 c37 -35 105
-49 214 -44 108 5 160 26 195 78 13 19 43 45 67 58 58 29 79 68 73 138 -6 71
-36 112 -117 161 l-66 39 -3 73 -3 74 38 -5 c21 -3 74 -20 118 -37z m-145
-206 c43 -22 70 -62 70 -106 0 -48 -14 -53 -110 -39 -123 17 -255 -7 -332 -61
-37 -27 -156 -59 -215 -59 l-44 0 3 53 3 52 62 7 c35 4 85 18 113 32 41 20 60
24 95 19 34 -4 53 -1 86 16 23 12 48 20 56 16 29 -11 91 15 120 49 31 39 51
43 93 21z m-1063 -98 c-4 -29 -15 -77 -25 -107 -21 -60 -25 -62 -129 -73 l-63
-7 0 74 0 74 58 21 c31 12 77 33 102 46 25 13 49 24 54 25 5 0 6 -24 3 -53z
m1019 -131 c18 -14 18 -16 1 -33 -29 -29 -277 -33 -277 -3 0 18 42 31 123 39
124 12 132 12 153 -3z m-1483 -159 c51 -33 58 -56 69 -224 13 -200 6 -385 -15
-435 -11 -26 -28 -44 -59 -59 -41 -21 -58 -23 -304 -27 -245 -4 -263 -3 -306
16 -84 37 -83 33 -83 389 0 286 1 314 18 330 15 15 43 19 195 24 312 11 454 7
485 -14z m3307 -32 c47 -9 135 -22 195 -31 156 -22 305 -63 305 -85 0 -4 -62
-38 -137 -75 -76 -38 -203 -104 -283 -148 -243 -132 -342 -174 -680 -287 -179
-59 -359 -121 -400 -136 -112 -41 -237 -39 -480 10 -102 20 -270 52 -374 72
-104 19 -192 37 -194 40 -3 3 17 5 44 5 64 0 294 26 408 46 187 32 396 88 581
155 l111 39 151 -20 c83 -11 193 -29 244 -39 52 -11 96 -17 99 -14 10 10 -50
52 -103 72 -30 11 -103 30 -161 42 -89 19 -106 25 -100 38 4 9 9 35 12 59 3
36 -3 54 -42 123 -25 45 -40 79 -33 76 96 -43 139 -57 173 -57 53 0 102 17
115 41 14 26 24 24 73 -16 82 -67 173 -80 241 -35 17 11 41 20 54 20 32 0 91
61 91 94 0 14 1 26 3 26 1 0 40 -7 87 -15z m-865 -224 c9 -22 14 -44 11 -49
-16 -27 -347 -138 -571 -192 -239 -58 -568 -90 -933 -90 -250 0 -282 6 -301
61 -5 16 -9 29 -8 29 1 0 137 2 302 4 165 2 347 8 405 15 368 41 771 133 988
226 42 18 80 34 83 34 3 1 14 -17 24 -38z m-2069 -37 c18 -44 10 -54 -47 -54
-20 0 -64 -3 -98 -6 l-61 -7 0 52 0 51 96 0 95 0 15 -36z m-1164 -80 c3 -29 0
-38 -16 -45 -25 -10 -250 -29 -341 -29 -93 0 -115 11 -115 57 l0 38 127 -3
c71 -2 160 1 198 6 39 5 86 10 106 11 35 1 37 -1 41 -35z m1199 -570 c29 -27
26 -104 -6 -134 -38 -36 -100 -32 -137 9 -17 19 -28 43 -28 60 0 35 42 88 73
93 30 5 76 -8 98 -28z m-2363 -441 l-3 -458 -85 0 -85 0 -3 458 -2 457 90 0
90 0 -2 -457z m4867 422 c82 -42 117 -99 117 -187 -1 -81 -13 -113 -68 -169
l-44 -45 37 -21 c78 -44 113 -106 113 -200 0 -70 -33 -147 -78 -185 -18 -15
-58 -36 -89 -49 -53 -20 -76 -22 -283 -23 l-225 -1 -3 458 -2 459 233 -4 233
-3 59 -30z m-4331 -211 c12 -5 16 -21 16 -75 l0 -69 -42 0 c-58 0 -122 -34
-150 -78 -21 -35 -23 -50 -28 -242 l-5 -205 -75 0 -75 0 -3 328 -2 327 70 0
70 0 0 -40 c0 -47 8 -49 41 -14 46 49 140 84 183 68z m592 -28 c273 -125 248
-551 -38 -637 -86 -26 -200 -22 -271 9 -203 90 -261 374 -111 541 77 86 172
124 293 116 49 -3 92 -13 127 -29z m743 23 c64 -13 124 -57 153 -111 22 -41
23 -55 26 -301 l3 -258 -78 3 -78 3 -5 225 c-3 149 -9 232 -17 246 -20 36 -62
56 -113 56 -55 0 -98 -22 -132 -66 -22 -30 -23 -40 -26 -247 l-3 -216 -42 -2
c-23 -1 -59 1 -80 5 l-37 6 2 321 3 322 70 0 70 0 3 -32 c4 -38 12 -41 36 -14
30 33 115 67 173 70 12 1 45 -4 72 -10z m1112 -5 c67 -20 132 -81 148 -139 7
-24 11 -136 11 -283 l0 -243 -72 3 -73 3 -5 220 c-4 189 -8 225 -23 248 -26
40 -61 59 -109 59 -53 1 -99 -22 -132 -65 -25 -33 -26 -36 -28 -248 l-3 -214
-75 0 -75 0 -3 323 -2 322 70 0 c68 0 70 -1 70 -25 0 -25 23 -35 35 -15 9 14
83 52 120 61 49 12 88 10 146 -7z m703 -4 c30 -12 60 -27 66 -35 15 -18 30
-10 30 16 0 17 7 19 71 19 l70 0 -3 -337 c-3 -301 -6 -344 -23 -391 -25 -71
-91 -143 -157 -173 -46 -21 -68 -24 -173 -23 -101 0 -129 3 -177 23 -32 12
-58 29 -58 36 0 15 22 118 26 124 2 2 23 -6 47 -18 180 -87 357 -16 357 145
l0 47 -22 -20 c-63 -57 -167 -76 -264 -48 -47 13 -69 27 -110 69 -68 70 -89
130 -89 256 0 81 4 103 26 150 70 148 233 216 383 160z m1932 -7 c69 -23 165
-122 190 -194 24 -72 24 -188 1 -256 -24 -69 -93 -145 -165 -180 -51 -25 -67
-28 -162 -28 -96 0 -110 3 -158 28 -138 73 -205 213 -180 374 33 212 253 331
474 256z m-3248 -320 l-3 -328 -75 0 -75 0 -3 328 -2 327 80 0 80 0 -2 -327z
m3752 76 l94 -241 38 113 c22 63 60 171 85 242 l45 127 74 0 c41 0 74 -2 74
-4 0 -21 -263 -712 -295 -777 -54 -105 -117 -150 -219 -152 l-61 -2 -3 66 -3
66 29 -5 c58 -8 115 42 143 125 11 33 2 57 -202 546 -27 65 -49 122 -49 128 0
5 35 9 78 9 l78 0 94 -241z"/>
<path d="M5683 7099 c-28 -8 -73 -50 -73 -68 0 -4 6 -16 14 -26 13 -19 16 -19
89 -1 70 16 78 16 107 1 44 -23 84 -17 88 13 10 67 -116 113 -225 81z"/>
<path d="M4851 7014 c-93 -25 -161 -92 -161 -158 0 -29 5 -39 25 -48 23 -10
30 -8 68 29 60 58 82 67 166 65 83 -2 101 7 101 49 0 36 -31 65 -78 73 -49 8
-58 7 -121 -10z"/>
<path d="M5688 6737 c-15 -12 -32 -35 -38 -50 -15 -41 -12 -124 5 -157 50 -96
168 -73 195 39 31 130 -75 240 -162 168z"/>
<path d="M4904 6668 c-84 -40 -82 -238 3 -277 111 -50 202 86 144 215 -30 67
-88 91 -147 62z"/>
<path d="M5460 6417 c-26 -13 -38 -43 -23 -58 5 -5 42 -13 82 -19 41 -6 80
-15 88 -21 25 -21 13 -53 -37 -100 -36 -33 -48 -52 -44 -64 8 -20 49 -15 88
10 64 42 109 170 75 212 -38 46 -171 69 -229 40z"/>
<path d="M3890 6358 c-39 -21 -30 -39 30 -59 44 -14 66 -30 108 -76 49 -54 53
-57 66 -40 15 20 10 50 -18 104 -30 60 -133 98 -186 71z"/>
<path d="M5020 6085 c-44 -53 86 -174 225 -211 134 -36 313 9 331 83 10 38
-12 44 -70 20 -39 -15 -74 -21 -146 -21 -87 -1 -101 2 -161 30 -43 21 -78 46
-99 73 -35 43 -59 51 -80 26z"/>
<path d="M5200 4880 c-37 -37 -21 -100 25 -100 31 0 45 19 45 62 0 27 -5 40
-19 48 -26 13 -28 13 -51 -10z"/>
<path d="M2280 4296 c-116 -33 -219 -117 -266 -219 -25 -54 -29 -74 -29 -152
0 -83 3 -96 37 -165 20 -42 56 -97 79 -123 92 -106 252 -185 424 -212 l40 -6
24 52 c13 28 51 84 85 123 164 189 200 252 200 356 0 173 -114 299 -307 344
-80 19 -223 19 -287 2z"/>
<path d="M3430 3631 c-6 -12 -10 -106 -10 -238 0 -249 4 -268 60 -268 58 0 61
17 54 275 -4 124 -11 231 -17 238 -16 20 -75 15 -87 -7z"/>
<path d="M3610 3390 l0 -250 25 -6 c14 -3 71 -4 128 -2 123 5 174 26 202 84
26 56 16 130 -22 165 -17 14 -37 29 -44 31 -10 4 -6 14 15 36 34 37 39 96 12
138 -28 42 -72 54 -201 54 l-115 0 0 -250z m214 131 c35 -39 -2 -81 -71 -81
-33 0 -33 0 -33 50 l0 50 43 0 c31 0 49 -6 61 -19z m11 -181 c23 -19 19 -66
-7 -84 -12 -9 -42 -16 -65 -16 l-43 0 0 61 0 62 50 -5 c27 -3 56 -11 65 -18z"/>
<path d="M6550 2560 l0 -120 115 0 c113 0 115 0 149 30 40 36 52 81 34 135
-20 59 -60 75 -190 75 l-108 0 0 -120z"/>
<path d="M6550 2184 l0 -127 123 5 c167 6 206 29 207 121 0 40 -5 53 -28 77
-38 38 -88 50 -204 50 l-98 0 0 -126z"/>
<path d="M2922 2429 c-64 -32 -96 -93 -96 -183 -1 -128 57 -197 170 -204 81
-5 127 16 165 77 25 39 29 54 29 121 0 87 -17 128 -72 173 -50 40 -135 47
-196 16z"/>
<path d="M5560 2428 c-59 -30 -90 -89 -90 -171 0 -111 57 -178 158 -185 110
-7 175 62 175 187 0 100 -38 158 -118 180 -57 16 -75 14 -125 -11z"/>
<path d="M7465 2443 c-35 -9 -85 -53 -105 -93 -14 -27 -20 -59 -20 -103 0
-122 70 -207 173 -209 120 -2 190 72 190 204 0 118 -63 196 -164 203 -30 2
-63 1 -74 -2z"/>
</g>
</svg>
