<svg width="12" height="12" viewBox="0 0 12 12" fill="none" xmlns="http://www.w3.org/2000/svg">
<path d="M4.40918 8.5C4.57916 8.87823 4.93716 9.16699 5.40039 9.16699H6.59961C7.06284 9.16699 7.42084 8.87823 7.59082 8.5H10.9004V10.667C10.9002 11.1748 10.5357 11.4999 10.2002 11.5H1.80566C1.47022 11.4998 1.1066 11.1747 1.10645 10.667V8.5H4.40918ZM6 0.5C7.00161 0.5 7.90039 1.41894 7.90039 2.66699V3.16699H10.7998C11.1354 3.16699 11.5 3.49195 11.5 4V6C11.5 6.50805 11.1354 6.83301 10.7998 6.83301H7.7002V6.66699C7.7002 6.07504 7.254 5.5 6.59961 5.5H5.40039C4.746 5.5 4.2998 6.07504 4.2998 6.66699V6.83301H1.2002C0.858588 6.83301 0.5 6.51471 0.5 6V4C0.5 3.49195 0.864587 3.16699 1.2002 3.16699H4.09961V2.66699C4.09961 1.41894 4.99839 0.5 6 0.5ZM6 0.833008C5.01561 0.833008 4.2998 1.70837 4.2998 2.66699H4.79395V3.16699H7.7002V2.66699C7.7002 1.70837 6.98439 0.833008 6 0.833008Z" fill="#1C1B1F" stroke="#2D2D2D"/>
</svg>
