<svg width="13" height="13" viewBox="0 0 13 13" fill="none" xmlns="http://www.w3.org/2000/svg">
<path d="M12.8046 5.36637L6.94126 0.146801C6.68067 -0.0489335 6.35493 -0.0489335 6.09434 0.146801L0.23104 5.36637C-0.0295511 5.62735 -0.094699 6.01882 0.165892 6.2798C0.426483 6.54078 0.81737 6.60602 1.07796 6.34504L1.2734 6.08407V12.3476C1.2734 12.739 1.53399 13 1.92488 13H11.0456C11.4365 13 11.697 12.739 11.697 12.3476V6.08407L11.8925 6.2798C12.1531 6.54078 12.544 6.47553 12.8046 6.21456C13.0651 6.01882 13.0651 5.56211 12.8046 5.36637ZM6.48522 5.82309C7.46244 5.82309 8.24421 6.60602 8.24421 7.58469C8.24421 8.56336 7.46244 9.3463 6.48522 9.3463C5.50801 9.3463 4.72623 8.56336 4.72623 7.58469C4.72623 6.60602 5.50801 5.82309 6.48522 5.82309ZM3.22784 11.6951C3.22784 11.6299 3.22784 11.6299 3.29298 11.5646C4.72623 9.80301 7.33214 9.47679 9.09113 10.9122C9.35172 11.1079 9.54717 11.3036 9.74261 11.5646C9.74261 11.5646 9.74261 11.6299 9.80776 11.6951H3.22784Z" fill="black"/>
</svg>
